grf
version=1
nRows=18
nColumns=46
inDegrees=yes
endheader
time	ground_force_1_vx	ground_force_1_vy	ground_force_1_vz	ground_force_1_px	ground_force_1_py	ground_force_1_pz	ground_moment_1_mx	ground_moment_1_my	ground_moment_1_mz	ground_force_2_vx	ground_force_2_vy	ground_force_2_vz	ground_force_2_px	ground_force_2_py	ground_force_2_pz	ground_moment_2_mx	ground_moment_2_my	ground_moment_2_mz	ground_force_3_vx	ground_force_3_vy	ground_force_3_vz	ground_force_3_px	ground_force_3_py	ground_force_3_pz	ground_moment_3_mx	ground_moment_3_my	ground_moment_3_mz	ground_force_4_vx	ground_force_4_vy	ground_force_4_vz	ground_force_4_px	ground_force_4_py	ground_force_4_pz	ground_moment_4_mx	ground_moment_4_my	ground_moment_4_mz	ground_force_5_vx	ground_force_5_vy	ground_force_5_vz	ground_force_5_px	ground_force_5_py	ground_force_5_pz	ground_moment_5_mx	ground_moment_5_my	ground_moment_5_mz
1.305000	0.000000	0.000000	0.000000	0.000000	0.000000	0.000000	0.000000	0.000000	0.000000	0.000000	0.000000	0.000000	0.000000	0.000000	0.000000	0.000000	0.000000	0.000000	0.000000	0.000000	0.000000	0.000000	0.000000	0.000000	0.000000	0.000000	0.000000	-9.798019	577.932249	-17.903269	0.206812	0.000000	-0.891068	0.000000	11.106816	0.000000	-3.858214	566.195541	21.580661	0.248800	0.000000	-1.590158	-0.000000	-8.370966	-0.000000
1.305500	0.000000	0.000000	0.000000	0.000000	0.000000	0.000000	0.000000	0.000000	0.000000	0.000000	0.000000	0.000000	0.000000	0.000000	0.000000	0.000000	0.000000	0.000000	0.000000	0.000000	0.000000	0.000000	0.000000	0.000000	0.000000	0.000000	0.000000	-9.784941	578.217864	-17.689114	0.206800	0.000000	-0.891125	0.000000	11.110788	0.000000	-3.862728	566.595283	21.515142	0.248798	0.000000	-1.590138	-0.000000	-8.375360	-0.000000
1.306000	0.000000	0.000000	0.000000	0.000000	0.000000	0.000000	0.000000	0.000000	0.000000	0.000000	0.000000	0.000000	0.000000	0.000000	0.000000	0.000000	0.000000	0.000000	0.000000	0.000000	0.000000	0.000000	0.000000	0.000000	0.000000	0.000000	0.000000	-9.770313	578.505692	-17.474024	0.206788	0.000000	-0.891183	0.000000	11.114728	0.000000	-3.867432	566.995587	21.449451	0.248797	0.000000	-1.590117	-0.000000	-8.379736	-0.000000
1.306500	0.000000	0.000000	0.000000	0.000000	0.000000	0.000000	0.000000	0.000000	0.000000	0.000000	0.000000	0.000000	0.000000	0.000000	0.000000	0.000000	0.000000	0.000000	0.000000	0.000000	0.000000	0.000000	0.000000	0.000000	0.000000	0.000000	0.000000	-9.754165	578.795686	-17.258049	0.206775	0.000000	-0.891241	0.000000	11.118634	0.000000	-3.872340	567.396462	21.383553	0.248795	0.000000	-1.590096	-0.000000	-8.384104	-0.000000
1.307000	0.000000	0.000000	0.000000	0.000000	0.000000	0.000000	0.000000	0.000000	0.000000	0.000000	0.000000	0.000000	0.000000	0.000000	0.000000	0.000000	0.000000	0.000000	0.000000	0.000000	0.000000	0.000000	0.000000	0.000000	0.000000	0.000000	0.000000	-9.736532	579.087817	-17.041249	0.206762	0.000000	-0.891299	0.000000	11.122504	0.000000	-3.877460	567.797909	21.317402	0.248794	0.000000	-1.590075	-0.000000	-8.388475	-0.000000
1.307500	0.000000	0.000000	0.000000	0.000000	0.000000	0.000000	0.000000	0.000000	0.000000	0.000000	0.000000	0.000000	0.000000	0.000000	0.000000	0.000000	0.000000	0.000000	0.000000	0.000000	0.000000	0.000000	0.000000	0.000000	0.000000	0.000000	0.000000	-9.717453	579.382071	-16.823688	0.206749	0.000000	-0.891358	0.000000	11.126337	0.000000	-3.882794	568.199931	21.250950	0.248792	0.000000	-1.590053	-0.000000	-8.392856	-0.000000
1.308000	0.000000	0.000000	0.000000	0.000000	0.000000	0.000000	0.000000	0.000000	0.000000	0.000000	0.000000	0.000000	0.000000	0.000000	0.000000	0.000000	0.000000	0.000000	0.000000	0.000000	0.000000	0.000000	0.000000	0.000000	0.000000	0.000000	0.000000	-9.696974	579.678442	-16.605432	0.206736	0.000000	-0.891417	0.000000	11.130134	0.000000	-3.888343	568.602549	21.184149	0.248790	0.000000	-1.590030	-0.000000	-8.397258	-0.000000
1.308500	0.000000	0.000000	0.000000	0.000000	0.000000	0.000000	0.000000	0.000000	0.000000	0.000000	0.000000	0.000000	0.000000	0.000000	0.000000	0.000000	0.000000	0.000000	0.000000	0.000000	0.000000	0.000000	0.000000	0.000000	0.000000	0.000000	0.000000	-9.675147	579.976939	-16.386548	0.206722	0.000000	-0.891476	0.000000	11.133895	0.000000	-3.894100	569.005795	21.116954	0.248789	0.000000	-1.590008	-0.000000	-8.401689	-0.000000
1.309000	0.000000	0.000000	0.000000	0.000000	0.000000	0.000000	0.000000	0.000000	0.000000	0.000000	0.000000	0.000000	0.000000	0.000000	0.000000	0.000000	0.000000	0.000000	0.000000	0.000000	0.000000	0.000000	0.000000	0.000000	0.000000	0.000000	0.000000	-9.652027	580.277583	-16.167105	0.206708	0.000000	-0.891536	0.000000	11.137624	0.000000	-3.900059	569.409704	21.049317	0.248787	0.000000	-1.589984	-0.000000	-8.406156	-0.000000
1.309500	0.000000	0.000000	0.000000	0.000000	0.000000	0.000000	0.000000	0.000000	0.000000	0.000000	0.000000	0.000000	0.000000	0.000000	0.000000	0.000000	0.000000	0.000000	0.000000	0.000000	0.000000	0.000000	0.000000	0.000000	0.000000	0.000000	0.000000	-9.627671	580.580401	-15.947180	0.206694	0.000000	-0.891596	0.000000	11.141322	0.000000	-3.906210	569.814303	20.981192	0.248785	0.000000	-1.589961	-0.000000	-8.410667	-0.000000
1.310000	0.000000	0.000000	0.000000	0.000000	0.000000	0.000000	0.000000	0.000000	0.000000	0.000000	0.000000	0.000000	0.000000	0.000000	0.000000	0.000000	0.000000	0.000000	0.000000	0.000000	0.000000	0.000000	0.000000	0.000000	0.000000	0.000000	0.000000	-9.602137	580.885413	-15.726850	0.206679	0.000000	-0.891656	0.000000	11.144992	0.000000	-3.912541	570.219602	20.912529	0.248783	0.000000	-1.589936	-0.000000	-8.415226	-0.000000
1.310500	0.000000	0.000000	0.000000	0.000000	0.000000	0.000000	0.000000	0.000000	0.000000	0.000000	0.000000	0.000000	0.000000	0.000000	0.000000	0.000000	0.000000	0.000000	0.000000	0.000000	0.000000	0.000000	0.000000	0.000000	0.000000	0.000000	0.000000	-9.575485	581.192620	-15.506202	0.206664	0.000000	-0.891716	0.000000	11.148635	0.000000	-3.919038	570.625603	20.843284	0.248780	0.000000	-1.589912	-0.000000	-8.419840	-0.000000
1.311000	0.000000	0.000000	0.000000	0.000000	0.000000	0.000000	0.000000	0.000000	0.000000	0.000000	0.000000	0.000000	0.000000	0.000000	0.000000	0.000000	0.000000	0.000000	0.000000	0.000000	0.000000	0.000000	0.000000	0.000000	0.000000	0.000000	0.000000	-9.547780	581.502001	-15.285327	0.206649	0.000000	-0.891777	0.000000	11.152255	0.000000	-3.925682	571.032297	20.773425	0.248778	0.000000	-1.589887	-0.000000	-8.424511	-0.000000
1.311500	0.000000	0.000000	0.000000	0.000000	0.000000	0.000000	0.000000	0.000000	0.000000	0.000000	0.000000	0.000000	0.000000	0.000000	0.000000	0.000000	0.000000	0.000000	0.000000	0.000000	0.000000	0.000000	0.000000	0.000000	0.000000	0.000000	0.000000	-9.519084	581.813518	-15.064324	0.206634	0.000000	-0.891838	0.000000	11.155853	0.000000	-3.932451	571.439674	20.702925	0.248776	0.000000	-1.589861	-0.000000	-8.429243	-0.000000
1.312000	0.000000	0.000000	0.000000	0.000000	0.000000	0.000000	0.000000	0.000000	0.000000	0.000000	0.000000	0.000000	0.000000	0.000000	0.000000	0.000000	0.000000	0.000000	0.000000	0.000000	0.000000	0.000000	0.000000	0.000000	0.000000	0.000000	0.000000	-9.489460	582.127117	-14.843297	0.206618	0.000000	-0.891899	0.000000	11.159431	0.000000	-3.939329	571.847711	20.631758	0.248774	0.000000	-1.589835	-0.000000	-8.434039	-0.000000
1.312500	0.000000	0.000000	0.000000	0.000000	0.000000	0.000000	0.000000	0.000000	0.000000	0.000000	0.000000	0.000000	0.000000	0.000000	0.000000	0.000000	0.000000	0.000000	0.000000	0.000000	0.000000	0.000000	0.000000	0.000000	0.000000	0.000000	0.000000	-9.458974	582.442721	-14.622350	0.206602	0.000000	-0.891960	0.000000	11.162994	0.000000	-3.946297	572.256384	20.559900	0.248772	0.000000	-1.589809	-0.000000	-8.438904	-0.000000
1.313000	0.000000	0.000000	0.000000	0.000000	0.000000	0.000000	0.000000	0.000000	0.000000	0.000000	0.000000	0.000000	0.000000	0.000000	0.000000	0.000000	0.000000	0.000000	0.000000	0.000000	0.000000	0.000000	0.000000	0.000000	0.000000	0.000000	0.000000	-9.427694	582.760231	-14.401590	0.206586	0.000000	-0.892022	0.000000	11.166545	0.000000	-3.953332	572.665674	20.487327	0.248770	0.000000	-1.589782	-0.000000	-8.443837	-0.000000
1.313500	0.000000	0.000000	0.000000	0.000000	0.000000	0.000000	0.000000	0.000000	0.000000	0.000000	0.000000	0.000000	0.000000	0.000000	0.000000	0.000000	0.000000	0.000000	0.000000	0.000000	0.000000	0.000000	0.000000	0.000000	0.000000	0.000000	0.000000	-9.395692	583.079530	-14.181124	0.206570	0.000000	-0.892083	0.000000	11.170089	0.000000	-3.960405	573.075577	20.414011	0.248768	0.000000	-1.589754	-0.000000	-8.448840	-0.000000
